<?xml version="1.0" encoding="UTF-8"?>
<svg width="60px" height="20px" viewBox="0 0 60 20" version="1.1" xmlns="http://www.w3.org/2000/svg" xmlns:xlink="http://www.w3.org/1999/xlink">
    <!-- Generator: Sketch 49.3 (51167) - http://www.bohemiancoding.com/sketch -->
    <title>Logo Text</title>
    <desc>Created with Sketch.</desc>
    <defs></defs>
    <g id="Flow:-Create-a-goal" stroke="none" stroke-width="1" fill="none" fill-rule="evenodd">
        <g id="Start" transform="translate(-20.000000, -627.000000)" fill="#333333">
            <path d="M27.26,640.616 L25.676,643.784 L24.044,647 L20.492,647 L30.092,627.8 L36.5,640.616 L32.9,640.616 L30.092,634.976 L27.26,640.616 Z M38.084,643.808 L39.692,647 L36.116,647 L34.532,643.808 L38.084,643.808 Z M54.548,637.808 C53.804,638.888 52.868,639.656 51.74,640.112 L55.676,647 L52.004,647 L46.436,637.376 L49.292,637.4 C50.156,637.4 50.9,637.088 51.524,636.464 C52.172,635.84 52.484,635.072 52.484,634.184 C52.484,633.32 52.172,632.576 51.524,631.952 C50.9,631.328 50.156,631.016 49.292,631.016 L42.884,631.016 L42.524,630.656 L40.868,627.8 L49.292,627.8 C51.044,627.8 52.556,628.424 53.804,629.672 C55.052,630.944 55.676,632.432 55.676,634.184 C55.676,635.528 55.316,636.728 54.548,637.808 Z M67.1,640.616 L65.516,643.784 L63.884,647 L60.332,647 L69.932,627.8 L76.34,640.616 L72.74,640.616 L69.932,634.976 L67.1,640.616 Z M77.924,643.808 L79.532,647 L75.956,647 L74.372,643.808 L77.924,643.808 Z" id="Logo-Text"></path>
        </g>
    </g>
</svg>